<?xml version="1.0" standalone="no"?>
<!DOCTYPE svg PUBLIC "-//W3C//DTD SVG 20010904//EN"
 "http://www.w3.org/TR/2001/REC-SVG-20010904/DTD/svg10.dtd">
<svg version="1.0" xmlns="http://www.w3.org/2000/svg"
 width="590.000000pt" height="581.000000pt" viewBox="0 0 590.000000 581.000000"
 preserveAspectRatio="xMidYMid meet">

<g transform="translate(0.000000,581.000000) scale(0.100000,-0.100000)"
fill="#000000" stroke="none">
<path d="M0 2905 l0 -2905 2950 0 2950 0 0 2905 0 2905 -2950 0 -2950 0 0
-2905z m3165 2756 c152 -32 268 -96 377 -208 88 -91 138 -169 138 -216 0 -75
-60 -137 -132 -137 -48 0 -91 31 -137 98 -112 166 -284 240 -478 206 -122 -21
-222 -89 -308 -209 -25 -36 -59 -72 -75 -80 -89 -46 -190 20 -190 123 0 67
105 209 215 290 178 131 379 177 590 133z m-65 -567 c55 -46 60 -68 60 -237
l0 -154 48 -32 c132 -91 184 -261 123 -404 -23 -53 -78 -118 -127 -148 l-34
-21 0 -199 0 -200 -152 3 -153 3 -3 197 -2 198 -40 26 c-80 53 -140 163 -140
259 0 33 5 76 10 95 17 63 73 143 128 184 l52 39 0 149 c0 166 8 197 59 241
46 38 126 39 171 1z m-1979 -395 c86 -47 100 -135 34 -207 -36 -40 -23 -37
-185 -30 -87 4 -162 -31 -220 -104 -97 -122 -89 -265 21 -385 32 -35 39 -50
39 -83 0 -82 -55 -140 -133 -140 -63 0 -103 33 -178 144 -136 205 -100 489 85
671 122 120 242 168 402 161 73 -2 100 -8 135 -27z m4320 -25 c169 -50 301
-201 329 -377 29 -182 -69 -371 -233 -452 -240 -117 -543 24 -622 289 -20 65
-20 196 0 262 21 72 84 162 146 209 102 78 255 106 380 69z m-3841 -582 c61
-32 127 -97 157 -157 30 -58 42 -173 25 -225 -11 -31 -10 -33 110 -166 102
-114 119 -137 107 -148 -113 -104 -211 -187 -219 -184 -5 2 -58 59 -119 128
l-109 125 -84 1 c-108 1 -169 26 -238 100 -70 74 -93 130 -94 224 0 60 5 86
25 130 43 93 107 153 198 187 57 21 186 13 241 -15z m3112 -1 c62 -29 121 -88
155 -153 25 -47 28 -63 28 -148 0 -80 -4 -102 -23 -138 -35 -66 -98 -129 -160
-159 -47 -23 -67 -27 -138 -26 l-83 1 -117 -129 c-64 -72 -120 -128 -124 -127
-18 7 -219 184 -219 193 -1 6 53 70 118 144 112 125 119 135 109 160 -15 39
-12 140 7 191 32 91 111 170 202 205 57 22 186 15 245 -14z m-1447 -540 c214
-32 341 -73 536 -172 160 -82 284 -173 419 -309 132 -133 209 -235 298 -393
138 -248 206 -485 219 -767 25 -570 -251 -1124 -733 -1469 -104 -74 -328 -187
-447 -225 -45 -14 -136 -38 -202 -53 -111 -25 -138 -27 -345 -27 -196 0 -238
3 -324 22 -369 82 -670 249 -918 511 -456 478 -597 1161 -367 1769 213 562
676 967 1249 1092 201 44 412 51 615 21z m-2648 -81 c123 -61 193 -175 193
-315 0 -93 -26 -166 -81 -228 -167 -190 -468 -148 -581 80 -28 57 -33 77 -33
142 0 103 24 167 86 236 60 65 98 90 170 110 79 22 169 13 246 -25z"/>
<path d="M5255 4424 c-68 -35 -115 -106 -115 -174 0 -115 130 -220 236 -191
144 39 196 190 107 308 -49 64 -160 92 -228 57z"/>
<path d="M2964 3373 c-52 -7 -77 -43 -82 -118 -8 -121 30 -160 149 -153 83 4
104 21 119 93 21 100 -15 175 -84 175 -17 0 -40 2 -51 4 -11 2 -34 1 -51 -1z"/>
<path d="M3893 3034 c-18 -9 -53 -38 -78 -65 -63 -67 -62 -99 5 -172 65 -71
101 -87 145 -63 55 30 115 98 122 139 5 34 2 40 -58 101 -35 35 -73 67 -84 70
-11 3 -34 -2 -52 -10z"/>
<path d="M2010 2982 c-52 -50 -60 -63 -60 -95 0 -31 8 -47 48 -89 51 -56 91
-77 127 -70 34 6 145 124 145 154 0 29 -35 78 -88 124 -63 53 -98 48 -172 -24z"/>
<path d="M2850 2889 c-222 -39 -428 -147 -576 -301 -159 -165 -253 -346 -289
-555 -95 -543 244 -1062 787 -1205 69 -19 110 -22 243 -22 141 0 172 3 257 26
106 29 230 84 323 143 78 50 240 212 294 295 125 192 193 436 177 637 -20 260
-116 478 -295 665 -207 217 -430 316 -726 323 -77 2 -165 0 -195 -6z m325
-476 c122 -30 287 -144 345 -239 27 -43 21 -90 -15 -124 -46 -43 -77 -33 -158
53 -117 122 -244 170 -390 147 -113 -17 -171 -49 -259 -142 -65 -69 -82 -81
-109 -81 -41 0 -89 50 -89 92 0 81 190 242 343 291 90 28 225 30 332 3z m-444
-860 c55 -53 99 -102 99 -108 0 -7 -31 -42 -69 -78 -52 -50 -76 -67 -97 -67
-57 0 -167 104 -179 171 -4 24 0 44 12 65 19 34 107 114 125 114 6 0 55 -44
109 -97z m718 83 c37 -19 99 -89 107 -120 10 -41 -14 -91 -70 -149 -88 -92
-143 -87 -235 23 -37 44 -41 53 -29 68 23 30 186 192 192 192 4 0 19 -6 35
-14z"/>
<path d="M1539 1962 c-34 -30 -34 -31 -34 -116 0 -78 2 -88 25 -111 36 -35
138 -45 190 -18 46 24 60 54 60 135 0 61 -3 71 -29 100 -27 30 -34 33 -104 36
-71 4 -76 3 -108 -26z"/>
<path d="M4325 1981 c-43 -19 -59 -50 -63 -120 -7 -120 41 -168 161 -159 46 4
63 10 85 31 24 24 27 36 30 106 4 75 3 80 -25 111 -27 30 -35 33 -99 36 -38 2
-78 0 -89 -5z"/>
<path d="M2044 951 c-66 -47 -94 -87 -94 -134 0 -37 6 -47 60 -99 50 -49 65
-58 95 -58 31 0 46 9 95 56 67 64 77 90 54 140 -21 43 -117 124 -148 124 -13
0 -41 -13 -62 -29z"/>
<path d="M3885 961 c-16 -10 -49 -39 -72 -64 -63 -69 -60 -100 15 -177 50 -52
63 -60 95 -60 31 0 46 9 99 59 57 53 63 62 63 100 0 35 -7 47 -45 87 -45 46
-88 74 -112 74 -7 0 -26 -8 -43 -19z"/>
<path d="M2932 600 c-31 -13 -52 -68 -52 -134 0 -103 34 -136 143 -136 50 0
70 5 90 21 53 41 59 172 12 227 -20 24 -31 27 -96 29 -41 2 -84 -2 -97 -7z"/>
<path d="M390 3291 c-82 -44 -105 -167 -44 -233 76 -81 181 -75 248 15 32 43
29 123 -7 170 -51 67 -126 85 -197 48z"/>
</g>
</svg>
